<?xml version="1.0" encoding="UTF-8" standalone="no"?>
<!-- Generator: Adobe Illustrator 23.1.1, SVG Export Plug-In . SVG Version: 6.00 Build 0)  -->

<svg
   version="1.1"
   id="Layer_1"
   x="0px"
   y="0px"
   viewBox="0 0 100 100"
   style="enable-background:new 0 0 100 100;"
   xml:space="preserve"
   sodipodi:docname="grid.svg"
   inkscape:version="1.4 (86a8ad7, 2024-10-11)"
   xmlns:inkscape="http://www.inkscape.org/namespaces/inkscape"
   xmlns:sodipodi="http://sodipodi.sourceforge.net/DTD/sodipodi-0.dtd"
   xmlns="http://www.w3.org/2000/svg"
   xmlns:svg="http://www.w3.org/2000/svg"><defs
   id="defs9"><inkscape:path-effect
     effect="fillet_chamfer"
     id="path-effect9"
     is_visible="true"
     lpeversion="1"
     nodesatellites_param="F,0,0,1,0,1.4620091,0,1 @ F,0,0,1,0,1.5724997,0,1 @ F,0,0,1,0,1.1921008,0,1 @ F,0,0,1,0,1.1280927,0,1 @ F,0,0,1,0,0.85118611,0,1 @ F,0,0,1,0,0.97478932,0,1"
     radius="0"
     unit="px"
     method="auto"
     mode="F"
     chamfer_steps="1"
     flexible="false"
     use_knot_distance="true"
     apply_no_radius="true"
     apply_with_radius="true"
     only_selected="false"
     hide_knots="false" /><inkscape:path-effect
     effect="fillet_chamfer"
     id="path-effect9-2"
     is_visible="true"
     lpeversion="1"
     nodesatellites_param="F,0,0,1,0,1.4620091,0,1 @ F,0,0,1,0,1.5724997,0,1 @ F,0,0,1,0,1.1921008,0,1 @ F,0,0,1,0,1.1280927,0,1 @ F,0,0,1,0,0.85118611,0,1 @ F,0,0,1,0,0.97478932,0,1"
     radius="0"
     unit="px"
     method="auto"
     mode="F"
     chamfer_steps="1"
     flexible="false"
     use_knot_distance="true"
     apply_no_radius="true"
     apply_with_radius="true"
     only_selected="false"
     hide_knots="false" /><inkscape:path-effect
     effect="fillet_chamfer"
     id="path-effect9-2-5"
     is_visible="true"
     lpeversion="1"
     nodesatellites_param="F,0,0,1,0,3.327376,0,1 @ F,0,0,1,0,1.5724997,0,1 @ F,0,0,1,0,2.8827329,0,1"
     radius="0"
     unit="px"
     method="auto"
     mode="F"
     chamfer_steps="1"
     flexible="false"
     use_knot_distance="true"
     apply_no_radius="true"
     apply_with_radius="true"
     only_selected="false"
     hide_knots="false" /></defs><sodipodi:namedview
   id="namedview9"
   pagecolor="#ffffff"
   bordercolor="#000000"
   borderopacity="0.25"
   inkscape:showpageshadow="2"
   inkscape:pageopacity="0.0"
   inkscape:pagecheckerboard="0"
   inkscape:deskcolor="#d1d1d1"
   inkscape:zoom="5.7412011"
   inkscape:cx="58.698519"
   inkscape:cy="47.638116"
   inkscape:window-width="2368"
   inkscape:window-height="1240"
   inkscape:window-x="1289"
   inkscape:window-y="440"
   inkscape:window-maximized="0"
   inkscape:current-layer="Layer_1" />
<rect
   x="13"
   y="12"
   width="16.799999"
   height="16.799999"
   id="rect1"
   transform="matrix(0.86948897,0,0,0.86948897,6.5320771,6.5125004)" />
<rect
   x="41.700001"
   y="12"
   width="16.799999"
   height="16.799999"
   id="rect2"
   transform="matrix(0.86948897,0,0,0.86948897,6.5320771,6.5125004)" />
<rect
   x="70.400002"
   y="12"
   width="16.799999"
   height="16.799999"
   id="rect3"
   transform="matrix(0.86948897,0,0,0.86948897,6.5320771,6.5125004)" />
<rect
   x="13"
   y="41.5"
   width="16.799999"
   height="16.799999"
   id="rect4"
   transform="matrix(0.86948897,0,0,0.86948897,6.5320771,6.5125004)" />
<rect
   x="41.700001"
   y="41.5"
   width="16.799999"
   height="16.799999"
   id="rect5"
   transform="matrix(0.86948897,0,0,0.86948897,6.5320771,6.5125004)" />
<rect
   x="70.400002"
   y="41.5"
   width="16.799999"
   height="16.799999"
   id="rect6"
   transform="matrix(0.86948897,0,0,0.86948897,6.5320771,6.5125004)" />
<rect
   x="12.9"
   y="71"
   width="16.799999"
   height="16.799999"
   id="rect7"
   transform="matrix(0.86948897,0,0,0.86948897,6.5320771,6.5125004)" />
<rect
   x="41.599998"
   y="71"
   width="16.799999"
   height="16.799999"
   id="rect8"
   transform="matrix(0.86948897,0,0,0.86948897,6.5320771,6.5125004)" />
<rect
   x="70.300003"
   y="71"
   width="16.799999"
   height="16.799999"
   id="rect9"
   transform="matrix(0.86948897,0,0,0.86948897,6.5320771,6.5125004)" />
<path
   d="m 51.4,27.9 c 1.9,0 22.612439,-0.306023 23.812439,1.293977 l 9.07387,27.390749 C 86.16835,62.583342 86.4,72.3 83.6,74.5 c -2.8,2.2 -6.9,1.8 -9.1,-1 L 46.3,38.4 c -2.2,-2.8 -1.8,-6.9 1,-9.1 1.2,-1 2.7,-1.4 4.1,-1.4 z"
   id="path1-8-2-8"
   transform="matrix(-0.26102847,-0.20822042,0.20822042,-0.26102847,101.98444,115.33191)"
   sodipodi:nodetypes="sccscccs" /><path
   d="m 51.4,27.9 c 1.9,0 22.612439,-0.306023 23.812439,1.293977 l 9.07387,27.390749 C 86.16835,62.583342 86.4,72.3 83.6,74.5 c -2.8,2.2 -6.9,1.8 -9.1,-1 L 46.3,38.4 c -2.2,-2.8 -1.8,-6.9 1,-9.1 1.2,-1 2.7,-1.4 4.1,-1.4 z"
   id="path1-8-2-8-1"
   transform="matrix(-0.20822042,-0.26102847,-0.26102847,0.20822042,115.40275,101.92491)"
   sodipodi:nodetypes="sccscccs" /></svg>
