<?xml version="1.0" encoding="UTF-8" standalone="no"?>
<!-- Generator: Adobe Illustrator 23.0.1, SVG Export Plug-In . SVG Version: 6.00 Build 0)  -->

<svg
   version="1.1"
   id="Layer_1"
   x="0px"
   y="0px"
   viewBox="0 0 200 100"
   xml:space="preserve"
   sodipodi:docname="new_labels_indicator.svg"
   inkscape:version="1.4 (86a8ad7, 2024-10-11)"
   width="200"
   height="100"
   xmlns:inkscape="http://www.inkscape.org/namespaces/inkscape"
   xmlns:sodipodi="http://sodipodi.sourceforge.net/DTD/sodipodi-0.dtd"
   xmlns="http://www.w3.org/2000/svg"
   xmlns:svg="http://www.w3.org/2000/svg"><defs
   id="defs1"><inkscape:path-effect
     effect="fillet_chamfer"
     id="path-effect9"
     is_visible="true"
     lpeversion="1"
     nodesatellites_param="F,0,0,1,0,1.4620091,0,1 @ F,0,0,1,0,1.5724997,0,1 @ F,0,0,1,0,1.1921008,0,1 @ F,0,0,1,0,1.1280927,0,1 @ F,0,0,1,0,0.85118611,0,1 @ F,0,0,1,0,0.97478932,0,1"
     radius="0"
     unit="px"
     method="auto"
     mode="F"
     chamfer_steps="1"
     flexible="false"
     use_knot_distance="true"
     apply_no_radius="true"
     apply_with_radius="true"
     only_selected="false"
     hide_knots="false" /><inkscape:path-effect
     effect="fillet_chamfer"
     id="path-effect9-2-5"
     is_visible="true"
     lpeversion="1"
     nodesatellites_param="F,0,0,1,0,3.327376,0,1 @ F,0,0,1,0,1.5724997,0,1 @ F,0,0,1,0,2.8827329,0,1"
     radius="0"
     unit="px"
     method="auto"
     mode="F"
     chamfer_steps="1"
     flexible="false"
     use_knot_distance="true"
     apply_no_radius="true"
     apply_with_radius="true"
     only_selected="false"
     hide_knots="false" /></defs><sodipodi:namedview
   id="namedview1"
   pagecolor="#ffffff"
   bordercolor="#000000"
   borderopacity="0.25"
   inkscape:showpageshadow="2"
   inkscape:pageopacity="0.0"
   inkscape:pagecheckerboard="0"
   inkscape:deskcolor="#d1d1d1"
   inkscape:zoom="6.34"
   inkscape:cx="72.239748"
   inkscape:cy="92.507886"
   inkscape:window-width="3840"
   inkscape:window-height="2054"
   inkscape:window-x="-11"
   inkscape:window-y="244"
   inkscape:window-maximized="1"
   inkscape:current-layer="Layer_1" />
<circle
   cx="59.599998"
   cy="42.700001"
   r="4.9000001"
   id="circle1" />
<path
   d="m 41.1,84.2 c -1,0 -2,-0.4 -2.7,-1.3 l -22,-26.7 c -1.2,-1.5 -1,-3.7 0.5,-4.9 L 48.8,24.9 c 0.6,-0.5 1.4,-0.8 2.2,-0.8 0,0 0,0 0,0 l 27.1,0.1 c 1,0 2,0.5 2.7,1.3 0.7,0.8 0.9,1.9 0.7,2.9 l -5,26.6 c -0.2,0.8 -0.6,1.5 -1.2,2 l -32,26.4 c -0.6,0.5 -1.4,0.8 -2.2,0.8 z M 24,54.5 41.6,75.8 69.9,52.5 73.9,31.3 52.3,31.2 Z"
   id="path1" />
<path
   d="m 51.4,27.9 c 1.9,0 3.8,0.8 5,2.4 l 28.2,35.1 c 2.2,2.8 1.8,6.9 -1,9.1 -2.8,2.2 -13.953368,0.0607 -16.153368,-2.739303 L 50.94614,51.327389 C 48.74614,48.527389 44.5,31.5 47.3,29.3 c 1.2,-1 2.7,-1.4 4.1,-1.4 z"
   id="path1-8"
   transform="matrix(0.40009714,0.31915445,-0.31915445,0.40009714,187.1049,-26.818852)"
   sodipodi:nodetypes="sccscccs" /><path
   d="m 51.4,27.9 c 1.9,0 15.727389,5.25386 16.927389,6.85386 l 15.95892,21.830866 C 86.486309,59.384726 86.4,72.3 83.6,74.5 c -2.8,2.2 -6.9,1.8 -9.1,-1 L 46.3,38.4 c -2.2,-2.8 -1.8,-6.9 1,-9.1 1.2,-1 2.7,-1.4 4.1,-1.4 z"
   id="path1-8-2"
   transform="matrix(-0.31915445,0.40009714,-0.40009714,-0.31915445,226.81885,-6.2689658)"
   sodipodi:nodetypes="sccscccs" /></svg>
