<?xml version="1.0" encoding="UTF-8" standalone="no"?>
<!-- Generator: Adobe Illustrator 23.0.1, SVG Export Plug-In . SVG Version: 6.00 Build 0)  -->

<svg
   version="1.1"
   id="Layer_1"
   x="0px"
   y="0px"
   viewBox="0 0 200 100"
   xml:space="preserve"
   sodipodi:docname="new_shapes_indicator.svg"
   width="200"
   height="100"
   inkscape:version="1.4 (86a8ad7, 2024-10-11)"
   xmlns:inkscape="http://www.inkscape.org/namespaces/inkscape"
   xmlns:sodipodi="http://sodipodi.sourceforge.net/DTD/sodipodi-0.dtd"
   xmlns="http://www.w3.org/2000/svg"
   xmlns:svg="http://www.w3.org/2000/svg"><defs
   id="defs1" /><sodipodi:namedview
   id="namedview1"
   pagecolor="#ffffff"
   bordercolor="#000000"
   borderopacity="0.25"
   inkscape:showpageshadow="2"
   inkscape:pageopacity="0.0"
   inkscape:pagecheckerboard="0"
   inkscape:deskcolor="#d1d1d1"
   inkscape:zoom="6.9601193"
   inkscape:cx="98.705205"
   inkscape:cy="54.524927"
   inkscape:window-width="3840"
   inkscape:window-height="2054"
   inkscape:window-x="-11"
   inkscape:window-y="244"
   inkscape:window-maximized="1"
   inkscape:current-layer="Layer_1" />
<polygon
   points="85.7,67.4 51.9,79.5 22.8,65.8 29.9,18.1 "
   id="polygon1" />
<path
   d="m 51.4,27.9 c 1.9,0 22.612439,-0.306023 23.812439,1.293977 l 9.07387,27.390749 C 86.16835,62.583342 86.4,72.3 83.6,74.5 c -2.8,2.2 -6.9,1.8 -9.1,-1 L 46.3,38.4 c -2.2,-2.8 -1.8,-6.9 1,-9.1 1.2,-1 2.7,-1.4 4.1,-1.4 z"
   id="path1-8-2-8"
   transform="matrix(-0.39914797,-0.31839729,0.31839729,-0.39914797,206.23615,126.75523)"
   sodipodi:nodetypes="sccscccs" /><path
   d="m 51.4,27.9 c 1.9,0 22.612439,-0.306023 23.812439,1.293977 l 9.07387,27.390749 C 86.16835,62.583342 86.4,72.3 83.6,74.5 c -2.8,2.2 -6.9,1.8 -9.1,-1 L 46.3,38.4 c -2.2,-2.8 -1.8,-6.9 1,-9.1 1.2,-1 2.7,-1.4 4.1,-1.4 z"
   id="path1-8-2-8-1"
   transform="matrix(-0.31839729,-0.39914797,-0.39914797,0.31839729,226.75457,106.2541)"
   sodipodi:nodetypes="sccscccs" /></svg>
