<?xml version="1.0" encoding="UTF-8" standalone="no"?>
<!-- Generator: Adobe Illustrator 23.0.2, SVG Export Plug-In . SVG Version: 6.00 Build 0)  -->

<svg
   version="1.1"
   id="Layer_1"
   x="0px"
   y="0px"
   viewBox="0 0 880 440"
   xml:space="preserve"
   sodipodi:docname="new_image_indicator.svg"
   width="880"
   height="440"
   inkscape:version="1.4 (86a8ad7, 2024-10-11)"
   xmlns:inkscape="http://www.inkscape.org/namespaces/inkscape"
   xmlns:sodipodi="http://sodipodi.sourceforge.net/DTD/sodipodi-0.dtd"
   xmlns="http://www.w3.org/2000/svg"
   xmlns:svg="http://www.w3.org/2000/svg"><defs
   id="defs2" /><sodipodi:namedview
   id="namedview2"
   pagecolor="#ffffff"
   bordercolor="#000000"
   borderopacity="0.25"
   inkscape:showpageshadow="2"
   inkscape:pageopacity="0.0"
   inkscape:pagecheckerboard="0"
   inkscape:deskcolor="#d1d1d1"
   inkscape:zoom="0.81224945"
   inkscape:cx="337.95037"
   inkscape:cy="387.19632"
   inkscape:window-width="1833"
   inkscape:window-height="1240"
   inkscape:window-x="5799"
   inkscape:window-y="1612"
   inkscape:window-maximized="0"
   inkscape:current-layer="Layer_1" />
<path
   d="M 373.1,344.4 V 273 c -31,-27.4 -50.3,-44.5 -58,-51.3 -7.5,-6.6 -18.1,-6 -24.9,1.4 -13.3,14.4 -47,51.1 -61.7,67.1 -2.6,2.8 -6.7,3 -9.5,0.3 -7,-6.8 -17.4,-16.9 -22.9,-22.3 -6.8,-6.6 -17,-6.4 -23.5,0.6 -10.4,11.1 -36.3,38.8 -77.9,83.1 z"
   id="path1" />
<path
   d="M 358.4,77.8 H 81.6 c -17,0 -30.8,13.8 -30.8,30.8 v 222.9 c 0,17 13.8,30.8 30.8,30.8 h 276.9 c 17,0 30.8,-13.8 30.8,-30.8 V 108.6 c -0.1,-17 -13.8,-30.8 -30.9,-30.8 z m 7.2,243.4 c 0,11.1 -9,20.1 -20.1,20.1 H 94.8 c -11.1,0 -20.1,-9 -20.1,-20.1 v -202 c 0,-11.1 9,-20.1 20.1,-20.1 h 250.7 c 11.1,0 20.1,9 20.1,20.1 z"
   id="path2" />
<circle
   cx="157.10001"
   cy="164.2"
   r="30.4"
   id="circle2" />
<path
   d="m 51.4,27.9 c 1.9,0 3.8,0.8 5,2.4 l 28.2,35.1 c 2.2,2.8 1.8,6.9 -1,9.1 -2.8,2.2 -13.953368,0.0607 -16.153368,-2.739303 L 50.94614,51.327389 C 48.74614,48.527389 44.5,31.5 47.3,29.3 c 1.2,-1 2.7,-1.4 4.1,-1.4 z"
   id="path1-8"
   transform="matrix(1.7604011,-1.4042586,-1.4042586,-1.7604011,822.90858,557.99829)"
   sodipodi:nodetypes="sccscccs" /><path
   d="m 51.4,27.9 c 1.9,0 15.727389,5.25386 16.927389,6.85386 l 15.95892,21.830866 C 86.486309,59.384726 86.4,72.3 83.6,74.5 c -2.8,2.2 -6.9,1.8 -9.1,-1 L 46.3,38.4 c -2.2,-2.8 -1.8,-6.9 1,-9.1 1.2,-1 2.7,-1.4 4.1,-1.4 z"
   id="path1-8-2"
   transform="matrix(-1.4042586,-1.7604011,-1.7604011,1.4042586,997.64733,467.58017)"
   sodipodi:nodetypes="sccscccs" /></svg>
