<?xml version="1.0" encoding="UTF-8" standalone="no"?>
<!-- Generator: Adobe Illustrator 23.0.6, SVG Export Plug-In . SVG Version: 6.00 Build 0)  -->

<svg
   version="1.1"
   id="Layer_1"
   x="0px"
   y="0px"
   viewBox="0 0 100 100"
   style="enable-background:new 0 0 100 100;"
   xml:space="preserve"
   sodipodi:docname="roll.svg"
   inkscape:version="1.4 (86a8ad7, 2024-10-11)"
   xmlns:inkscape="http://www.inkscape.org/namespaces/inkscape"
   xmlns:sodipodi="http://sodipodi.sourceforge.net/DTD/sodipodi-0.dtd"
   xmlns="http://www.w3.org/2000/svg"
   xmlns:svg="http://www.w3.org/2000/svg"><defs
   id="defs2"><inkscape:path-effect
     effect="fillet_chamfer"
     id="path-effect9-2-5"
     is_visible="true"
     lpeversion="1"
     nodesatellites_param="F,0,0,1,0,3.327376,0,1 @ F,0,0,1,0,1.5724997,0,1 @ F,0,0,1,0,2.8827329,0,1"
     radius="0"
     unit="px"
     method="auto"
     mode="F"
     chamfer_steps="1"
     flexible="false"
     use_knot_distance="true"
     apply_no_radius="true"
     apply_with_radius="true"
     only_selected="false"
     hide_knots="false" /><inkscape:path-effect
     effect="fillet_chamfer"
     id="path-effect9"
     is_visible="true"
     lpeversion="1"
     nodesatellites_param="F,0,0,1,0,1.4620091,0,1 @ F,0,0,1,0,1.5724997,0,1 @ F,0,0,1,0,1.1921008,0,1 @ F,0,0,1,0,1.1280927,0,1 @ F,0,0,1,0,0.85118611,0,1 @ F,0,0,1,0,0.97478932,0,1"
     radius="0"
     unit="px"
     method="auto"
     mode="F"
     chamfer_steps="1"
     flexible="false"
     use_knot_distance="true"
     apply_no_radius="true"
     apply_with_radius="true"
     only_selected="false"
     hide_knots="false" /></defs><sodipodi:namedview
   id="namedview2"
   pagecolor="#ffffff"
   bordercolor="#000000"
   borderopacity="0.25"
   inkscape:showpageshadow="2"
   inkscape:pageopacity="0.0"
   inkscape:pagecheckerboard="0"
   inkscape:deskcolor="#d1d1d1"
   inkscape:zoom="18.15"
   inkscape:cx="55.206612"
   inkscape:cy="37.878788"
   inkscape:window-width="3840"
   inkscape:window-height="2054"
   inkscape:window-x="-11"
   inkscape:window-y="244"
   inkscape:window-maximized="1"
   inkscape:current-layer="Layer_1" />
<g
   id="g1">
	<path
   d="M34.6,16.5l-12.3-5.1c-0.3-0.1-0.6-0.2-0.9,0c-0.3,0.1-0.5,0.3-0.6,0.6s-0.2,0.6,0,0.9l1.8,4.3l-3.8,1.5   c-8,3.3-12.1,7.7-12,13c0,1.8,0.5,3.8,1.5,6c0.8,1.9,2.5,4.2,5.4,6.8c0.1,0.1,0.2,0.2,0.3,0.4c0.1,0.1,0.3,0.3,0.4,0.4   c0.1,0.1,0.3,0.3,0.4,0.3c0.2,0.2,0.4,0.2,0.6,0.1c0.2,0,0.3-0.2,0.4-0.3c0-0.2,0-0.4-0.1-0.5s-0.1-0.2-0.2-0.4   c-0.1-0.2-0.2-0.3-0.2-0.4c-0.4-0.7-0.7-1.4-1-2c-0.5-1.1-0.8-2.2-1-3.2s-0.2-1.9-0.1-2.7c0-0.8,0.3-1.6,0.6-2.3   c0.4-0.7,0.8-1.4,1.3-2c0.5-0.6,1.2-1.1,2-1.7c0.8-0.5,1.6-1,2.4-1.5c0.8-0.4,1.8-0.8,2.9-1.3l3.8-1.5l1.8,4.3   c0.1,0.3,0.3,0.5,0.6,0.6c0.3,0.1,0.6,0.2,0.9,0c0.3-0.1,0.5-0.3,0.6-0.6l5.1-12.3c0.1-0.3,0.2-0.6,0-0.9   C35.2,16.8,35,16.6,34.6,16.5z"
   id="path1" />
</g>
<path
   d="M60.1,88.6l25.4-13.8V49.5l-25.4,9.2V88.6z M57.6,54.3l27.7-10.1L57.6,34.2L29.9,44.2L57.6,54.3z M90.5,44.3v30.4  c0,0.9-0.2,1.8-0.7,2.6c-0.5,0.8-1.1,1.4-1.9,1.9L60,94.4c-0.7,0.4-1.5,0.6-2.4,0.6c-0.9,0-1.7-0.2-2.4-0.6L27.3,79.2  c-0.8-0.4-1.5-1.1-1.9-1.9c-0.5-0.8-0.7-1.7-0.7-2.6V44.3c0-1.1,0.3-2,0.9-2.9s1.4-1.5,2.4-1.9l27.9-10.1c0.6-0.2,1.2-0.3,1.7-0.3  c0.6,0,1.2,0.1,1.7,0.3l27.9,10.1c1,0.4,1.8,1,2.4,1.9S90.5,43.2,90.5,44.3z"
   id="path2" />
<path
   d="m 51.4,27.9 c 1.9,0 3.8,0.8 5,2.4 l 28.2,35.1 c 2.2,2.8 1.8,6.9 -1,9.1 -2.8,2.2 -13.953368,0.0607 -16.153368,-2.739303 L 50.94614,51.327389 C 48.74614,48.527389 44.5,31.5 47.3,29.3 c 1.2,-1 2.7,-1.4 4.1,-1.4 z"
   id="path1-8"
   transform="matrix(0.18345975,-0.22998809,0.22998809,0.18345975,-12.920637,9.4449509)"
   sodipodi:nodetypes="sccscccs" /><path
   id="rect3-4-8-4"
   transform="matrix(0.45047373,-0.57760163,0.45047373,0.57760163,45.587347,45.551095)"
   d="m 72.428833,12 h 12.742336 c 1.737719,0 2.028832,0.286566 2.028832,2.028832 v 12.742336 c 0,2.549964 -0.510531,3.547132 -2.028832,2.028831 L 70.400002,14.028832 C 68.869438,12.498268 69.903037,12 72.428833,12 Z"
   sodipodi:nodetypes="sssssss" /><path
   d="m 51.4,27.9 c 1.9,0 15.727389,5.25386 16.927389,6.85386 l 15.95892,21.830866 C 86.486309,59.384726 86.4,72.3 83.6,74.5 c -2.8,2.2 -6.9,1.8 -9.1,-1 L 46.3,38.4 c -2.2,-2.8 -1.8,-6.9 1,-9.1 1.2,-1 2.7,-1.4 4.1,-1.4 z"
   id="path1-8-2"
   transform="matrix(0.22998809,0.18345975,-0.18345975,0.22998809,-1.1079342,-13.383844)"
   sodipodi:nodetypes="sccscccs" /></svg>
